<?xml version="1.0" ?><!DOCTYPE svg  PUBLIC '-//W3C//DTD SVG 1.1//EN'  'http://www.w3.org/Graphics/SVG/1.1/DTD/svg11.dtd'><svg height="512px" style="enable-background:new 0 0 512 512;" version="1.1" viewBox="0 0 512 512" width="512px" xml:space="preserve" xmlns="http://www.w3.org/2000/svg" xmlns:xlink="http://www.w3.org/1999/xlink"><g id="social__x2C_media__x2C__vintage__x2C___soundcloud__x2C_"><g><path d="    M256.098,495.998c126.471,0,230.069-97.984,239.197-222.145H16.705C25.83,398.014,129.433,495.998,256.098,495.998    L256.098,495.998z M495.295,238.147c-9.128-124.26-112.727-222.145-239.197-222.145c-126.665,0-230.268,97.884-239.393,222.145    H495.295L495.295,238.147z" style="fill-rule:evenodd;clip-rule:evenodd;fill:#D66527;stroke:#D66527;stroke-width:0.2268;stroke-miterlimit:10;"/><path d="M256.098,431.109c96.383,0,175.008-78.729,175.008-175.209    c0-96.281-78.625-175.01-175.008-175.01c-96.478,0-175.006,78.729-175.006,175.01C81.092,352.381,159.62,431.109,256.098,431.109    L256.098,431.109z" style="fill-rule:evenodd;clip-rule:evenodd;fill:#E9D9A8;"/><path d="M24.828,238.147h462.541    c0.401,5.919,0.505,11.936,0.505,17.753c0,6.016-0.104,12.034-0.505,17.954H24.828c-0.404-5.92-0.705-11.938-0.705-17.954    C24.123,250.083,24.424,244.066,24.828,238.147L24.828,238.147z" style="fill-rule:evenodd;clip-rule:evenodd;fill:#E9D9A8;"/><path d="M256.098,412.557c86.253,0,156.454-70.406,156.454-156.657    c0-86.251-70.201-156.456-156.454-156.456c-86.25,0-156.656,70.205-156.656,156.456    C99.441,342.15,169.848,412.557,256.098,412.557L256.098,412.557z" style="fill-rule:evenodd;clip-rule:evenodd;fill:#D66527;"/><path d="M168.545,270.342c-3.511,0-6.119,2.906-6.119,6.52v12.938    c0,3.51,2.608,6.418,6.119,6.418c3.51,0,6.119-2.908,6.119-6.418v-12.938C174.664,273.248,172.055,270.342,168.545,270.342    L168.545,270.342z" style="fill-rule:evenodd;clip-rule:evenodd;fill:#E9D9A8;"/><path d="M221.498,244.266c-3.61,0-6.42,3.008-6.42,6.518v39.015    c0,3.51,2.81,6.418,6.42,6.418s6.42-2.908,6.42-6.418v-39.015C227.918,247.274,225.108,244.266,221.498,244.266L221.498,244.266z" style="fill-rule:evenodd;clip-rule:evenodd;fill:#E9D9A8;"/><path d="M193.418,257.305c-3.51,0-5.919,2.906-5.919,6.518v25.977    c0,3.51,2.409,6.418,5.919,6.418c3.61,0,6.216-2.908,6.216-6.418v-25.977C199.634,260.211,197.028,257.305,193.418,257.305    L193.418,257.305z" style="fill-rule:evenodd;clip-rule:evenodd;fill:#E9D9A8;"/><path d="M246.171,231.429c-3.61,0-6.119,3.51-6.119,7.922v48.741    c0,4.615,2.509,8.125,6.119,8.125c3.611,0,6.116-3.51,6.116-8.125v-48.741C252.287,234.939,249.782,231.429,246.171,231.429    L246.171,231.429z" style="fill-rule:evenodd;clip-rule:evenodd;fill:#E9D9A8;"/><path d="M326.802,250.784c-2.508,0-4.81,0.403-7.317,1.405    c-4.015-21.263-22.569-37.008-44.53-37.008c-3.413,0-6.62,0.301-9.826,0.904v80.734h37.709h23.965    c12.64,0,22.77-10.23,22.77-23.066C349.571,261.113,339.441,250.784,326.802,250.784L326.802,250.784z" style="fill-rule:evenodd;clip-rule:evenodd;fill:#E9D9A8;"/></g></g><g id="Layer_1"/></svg>