<?xml version="1.0" ?><!DOCTYPE svg  PUBLIC '-//W3C//DTD SVG 1.1//EN'  'http://www.w3.org/Graphics/SVG/1.1/DTD/svg11.dtd'><svg height="512px" style="enable-background:new 0 0 512 512;" version="1.1" viewBox="0 0 512 512" width="512px" xml:space="preserve" xmlns="http://www.w3.org/2000/svg" xmlns:xlink="http://www.w3.org/1999/xlink"><g id="social__x2C_media__x2C__vintage__x2C___youtube__x2C_"><g><path d="M256.101,495.998c126.469,0,230.171-97.988,239.195-222.25    H16.704C25.833,398.01,129.532,495.998,256.101,495.998L256.101,495.998z M495.296,238.147    c-9.024-124.26-112.727-222.145-239.195-222.145c-126.568,0-230.268,97.884-239.396,222.145H495.296L495.296,238.147z" style="fill-rule:evenodd;clip-rule:evenodd;fill:#C95B5E;"/><path d="M256.101,431.105c96.381,0,175.006-78.828,175.006-175.206    c0-96.281-78.625-175.01-175.006-175.01c-96.481,0-175.01,78.729-175.01,175.01C81.091,352.277,159.619,431.105,256.101,431.105    L256.101,431.105z" style="fill-rule:evenodd;clip-rule:evenodd;fill:#E9D9A8;"/><path d="M24.827,238.147H487.37    c0.404,5.819,0.505,11.834,0.505,17.753c0,6.016-0.101,12.034-0.505,17.848H24.827c-0.4-5.814-0.701-11.832-0.701-17.848    C24.126,249.981,24.427,243.966,24.827,238.147L24.827,238.147z" style="fill-rule:evenodd;clip-rule:evenodd;fill:#E9D9A8;"/><path d="M256.101,412.553c86.251,0,156.452-70.402,156.452-156.653    c0-86.251-70.201-156.556-156.452-156.556S99.444,169.649,99.444,255.9C99.444,342.15,169.85,412.553,256.101,412.553    L256.101,412.553z" style="fill-rule:evenodd;clip-rule:evenodd;fill:#C95B5E;"/><path d="M326.706,207.258c-5.918-6.52-12.639-6.921-15.645-7.321    c-21.964-1.607-54.961-2.008-54.961-2.008h-0.2c0,0-32.896,0.401-54.861,2.008c-3.209,0.4-9.829,0.701-15.845,7.121    c-4.612,5.013-5.719,16.346-5.719,16.346s-1.102,13.44-1.102,26.577v1.704v10.831c0,13.24,1.102,26.377,1.102,26.377    s1.307,11.334,6.02,16.449c6.019,6.518,13.741,6.217,17.248,6.922c12.538,1.303,53.357,1.703,53.357,1.703    s32.997-0.1,54.961-1.703c3.006-0.404,9.727-0.404,15.745-6.922c4.612-5.115,5.814-16.449,5.814-16.449s1.002-13.137,1.002-26.377    v-10.126v-2.408c0-13.136-1.002-26.477-1.002-26.477S331.419,212.171,326.706,207.258L326.706,207.258z M240.656,277.459v-35.2    v-10.832l18.754,10.531l23.568,12.636L240.656,277.459z" style="fill-rule:evenodd;clip-rule:evenodd;fill:#E9D9A8;"/></g></g><g id="Layer_1"/></svg>