<?xml version="1.0" ?><!DOCTYPE svg  PUBLIC '-//W3C//DTD SVG 1.1//EN'  'http://www.w3.org/Graphics/SVG/1.1/DTD/svg11.dtd'><svg height="512px" style="enable-background:new 0 0 512 512;" version="1.1" viewBox="0 0 512 512" width="512px" xml:space="preserve" xmlns="http://www.w3.org/2000/svg" xmlns:xlink="http://www.w3.org/1999/xlink"><g id="soundcloud__x2C__icons__x2C_social__x2C__media_x2C_"><g><path d="M425.614,86.281C382.305,42.981,322.253,16,255.962,16c-66.16,0-126.207,26.981-169.652,70.281    c-43.445,43.448-70.282,103.49-70.282,169.792c0,66.155,26.836,126.202,70.282,169.654C129.755,469.166,189.802,496,255.962,496    c66.291,0,126.342-26.834,169.652-70.272c43.443-43.452,70.282-103.499,70.282-169.654    C495.896,189.771,469.058,129.729,425.614,86.281z M412.465,412.432c-40.126,39.993-95.389,64.835-156.502,64.835    c-60.979,0-116.379-24.842-156.365-64.835c-39.993-39.984-64.835-95.384-64.835-156.358c0-61.116,24.842-116.384,64.835-156.5    c39.986-39.993,95.386-64.708,156.365-64.708c61.114,0,116.376,24.714,156.502,64.708c39.988,40.116,64.698,95.384,64.698,156.5    C477.163,317.048,452.453,372.447,412.465,412.432z" style="fill:#262626;"/><path d="M120.429,278.781c-5.442,0-9.429,4.523-9.429,10.103v20.195c0,5.579,3.987,10.093,9.429,10.093    c5.583,0,9.571-4.514,9.571-10.093v-20.195C130,283.305,126.012,278.781,120.429,278.781z" style="fill:#262626;"/><path d="M203.066,238.131c-5.712,0-10.066,4.783-10.066,10.229v60.719c0,5.579,4.354,10.093,10.066,10.093    c5.578,0,9.934-4.514,9.934-10.093V248.36C213,242.914,208.645,238.131,203.066,238.131z" style="fill:#262626;"/><path d="M159.299,258.458c-5.444,0-9.299,4.519-9.299,10.103v40.519c0,5.579,3.854,10.093,9.299,10.093    c5.579,0,9.701-4.514,9.701-10.093v-40.519C169,262.977,164.878,258.458,159.299,258.458z" style="fill:#262626;"/><path d="M241.5,218.072c-5.579,0-9.5,5.579-9.5,12.492v75.855c0,7.169,3.921,12.752,9.5,12.752    c5.576,0,9.5-5.583,9.5-12.752v-75.855C251,223.651,247.076,218.072,241.5,218.072z" style="fill:#262626;"/><path d="M367.162,248.36c-3.856,0-7.575,0.53-11.427,2.13c-6.246-33.076-35.192-57.657-69.47-57.657    c-5.176,0-10.266,0.401-15.266,1.457V320h58.828h37.334c19.661,0,35.47-15.955,35.47-35.887    C402.632,264.449,386.823,248.36,367.162,248.36z" style="fill:#262626;"/></g></g><g id="Layer_1"/></svg>